<svg width="25" height="24" viewBox="0 0 25 24" fill="none" xmlns="http://www.w3.org/2000/svg">
<g id="Icon &#240;&#159;&#140;&#147;">
<path id="Joystick" d="M12.3451 15.2392H8.16724L5.64298 17.4604C4.55661 18.4164 2.83051 17.5307 3.03814 16.1239L4.12727 8.74436C4.34779 7.25017 5.66984 6.14032 7.22919 6.14032H16.9388C18.4982 6.14032 19.8202 7.25017 20.0407 8.74436L21.1299 16.1239C21.3375 17.5307 19.6114 18.4164 18.525 17.4604L16.0008 15.2392H11.8229" stroke="#70727B" stroke-width="1.2"/>
<g id="Buttons">
<path d="M15.6236 9.55846H15.5932C15.3235 9.55846 15.1049 9.33983 15.1049 9.07015C15.1049 8.80047 15.3235 8.58184 15.5932 8.58184H15.6236C15.8933 8.58184 16.1119 8.80047 16.1119 9.07015C16.1119 9.33983 15.8933 9.55846 15.6236 9.55846Z" fill="#70727B"/>
<path d="M17.1341 12.4883H17.1037C16.834 12.4883 16.6154 12.2697 16.6154 12C16.6154 11.7303 16.834 11.5117 17.1037 11.5117H17.1341C17.4038 11.5117 17.6224 11.7303 17.6224 12C17.6224 12.2697 17.4038 12.4883 17.1341 12.4883Z" fill="#70727B"/>
<path d="M9.06291 12.9766V8.09354M6.54541 10.5351H11.5804M17.6224 12V12C17.6224 12.2697 17.4038 12.4883 17.1341 12.4883H17.1037C16.834 12.4883 16.6154 12.2697 16.6154 12V12C16.6154 11.7303 16.834 11.5117 17.1037 11.5117H17.1341C17.4038 11.5117 17.6224 11.7303 17.6224 12ZM16.1119 9.07015V9.07015C16.1119 9.33983 15.8933 9.55846 15.6236 9.55846H15.5932C15.3235 9.55846 15.1049 9.33983 15.1049 9.07015V9.07015C15.1049 8.80047 15.3235 8.58184 15.5932 8.58184H15.6236C15.8933 8.58184 16.1119 8.80047 16.1119 9.07015Z" stroke="#70727B" stroke-width="1.2"/>
</g>
</g>
</svg>
