<svg width="25" height="24" viewBox="0 0 25 24" fill="none" xmlns="http://www.w3.org/2000/svg">
<path d="M20.0095 10.7864L19.9301 10.4493H12.6021V13.5507H16.9805C16.5259 15.7093 14.4165 16.8456 12.6935 16.8456C11.4398 16.8456 10.1183 16.3182 9.24363 15.4706C8.78215 15.0163 8.41481 14.4754 8.16265 13.8789C7.91048 13.2824 7.77845 12.642 7.7741 11.9944C7.7741 10.688 8.36121 9.38121 9.21551 8.52164C10.0698 7.66207 11.36 7.18113 12.6429 7.18113C14.1121 7.18113 15.165 7.96125 15.5588 8.31703L17.7627 6.12469C17.1162 5.55656 15.3401 4.125 12.5719 4.125C10.4361 4.125 8.38828 4.94309 6.89133 6.43512C5.41406 7.9043 4.64941 10.0288 4.64941 12C4.64941 13.9712 5.37293 15.9895 6.80449 17.4703C8.33414 19.0495 10.5005 19.875 12.7311 19.875C14.7607 19.875 16.6845 19.0798 18.0555 17.637C19.4034 16.2166 20.1006 14.2514 20.1006 12.1912C20.1006 11.3239 20.0134 10.8089 20.0095 10.7864Z" fill="#E1E2E2"/>
</svg>
