<svg width="24" height="24" viewBox="0 0 24 24" fill="none" xmlns="http://www.w3.org/2000/svg">
<g id="Icon &#240;&#159;&#140;&#147;">
<path id="Accreditation" d="M11.4 4.5C11.4 4.83137 11.6686 5.1 12 5.1C12.3314 5.1 12.6 4.83137 12.6 4.5L11.4 4.5ZM6 21.6L18 21.6L18 20.4L6 20.4L6 21.6ZM19.6 20L19.6 4L18.4 4L18.4 20L19.6 20ZM4.4 4L4.4 20L5.6 20L5.6 4L4.4 4ZM18 2.4L12 2.4L12 3.6L18 3.6L18 2.4ZM12 2.4L6 2.4L6 3.6L12 3.6L12 2.4ZM12.6 3L12.6 2.62269e-08L11.4 -2.62268e-08L11.4 3L12.6 3ZM11.4 3L11.4 4.5L12.6 4.5L12.6 3L11.4 3ZM19.6 4C19.6 3.11634 18.8837 2.4 18 2.4L18 3.6C18.2209 3.6 18.4 3.77909 18.4 4L19.6 4ZM18 21.6C18.8837 21.6 19.6 20.8837 19.6 20L18.4 20C18.4 20.2209 18.2209 20.4 18 20.4L18 21.6ZM6 20.4C5.77909 20.4 5.6 20.2209 5.6 20L4.4 20C4.4 20.8837 5.11634 21.6 6 21.6L6 20.4ZM5.6 4C5.6 3.77909 5.77909 3.6 6 3.6L6 2.4C5.11634 2.4 4.4 3.11634 4.4 4L5.6 4Z" fill="#70727B"/>
<path id="User" d="M8 17.5C8.53416 15.7156 10.123 14.4212 12 14.4212C13.877 14.4212 15.4658 15.7156 16 17.5M14.2222 10.1991C14.2222 11.4136 13.2273 12.3982 12 12.3982C10.7727 12.3982 9.77778 11.4136 9.77778 10.1991C9.77778 8.98457 10.7727 8 12 8C13.2273 8 14.2222 8.98457 14.2222 10.1991Z" stroke="#70727B" stroke-width="1.2"/>
</g>
</svg>
